<svg width="14" height="14" viewBox="0 0 14 14" fill="none" xmlns="http://www.w3.org/2000/svg">
<path d="M5.56641 1.71582L6.21094 1.07129C6.50391 0.807617 6.94336 0.807617 7.20703 1.07129L12.9199 6.75488C13.1836 7.04785 13.1836 7.4873 12.9199 7.75098L7.20703 13.4639C6.94336 13.7275 6.50391 13.7275 6.21094 13.4639L5.56641 12.8193C5.30273 12.5264 5.30273 12.0869 5.56641 11.7939L9.11133 8.4248H0.703125C0.292969 8.4248 0 8.13184 0 7.72168V6.78418C0 6.40332 0.292969 6.08105 0.703125 6.08105H9.11133L5.56641 2.74121C5.30273 2.44824 5.27344 2.00879 5.56641 1.71582Z" fill="#005DFF"/>
</svg>
