<svg width="16" height="14" viewBox="0 0 16 14" fill="none" xmlns="http://www.w3.org/2000/svg">
<path d="M15.5 4.09375V12.5312C15.5 13.3223 14.8555 13.9375 14.0938 13.9375H1.90625C1.11523 13.9375 0.5 13.3223 0.5 12.5312V4.09375C0.5 3.33203 1.11523 2.6875 1.90625 2.6875H4.48438L4.83594 1.75C5.04102 1.19336 5.56836 0.8125 6.1543 0.8125H9.81641C10.4023 0.8125 10.9297 1.19336 11.1348 1.75L11.5156 2.6875H14.0938C14.8555 2.6875 15.5 3.33203 15.5 4.09375ZM11.5156 8.3125C11.5156 6.37891 9.93359 4.79688 8 4.79688C6.03711 4.79688 4.48438 6.37891 4.48438 8.3125C4.48438 10.2754 6.03711 11.8281 8 11.8281C9.93359 11.8281 11.5156 10.2754 11.5156 8.3125ZM10.5781 8.3125C10.5781 9.74805 9.40625 10.8906 8 10.8906C6.56445 10.8906 5.42188 9.74805 5.42188 8.3125C5.42188 6.90625 6.56445 5.73438 8 5.73438C9.40625 5.73438 10.5781 6.90625 10.5781 8.3125Z" fill="white"/>
</svg>
