<svg width="23" height="19" viewBox="0 0 23 19" fill="none" xmlns="http://www.w3.org/2000/svg">
<path d="M20.2227 5.15918C20.2227 5.37402 20.2227 5.5459 20.2227 5.76074C20.2227 11.7334 15.7109 18.5654 7.41797 18.5654C4.83984 18.5654 2.47656 17.835 0.5 16.5459C0.84375 16.5889 1.1875 16.6318 1.57422 16.6318C3.67969 16.6318 5.61328 15.9014 7.16016 14.6982C5.18359 14.6553 3.50781 13.3662 2.94922 11.5615C3.25 11.6045 3.50781 11.6475 3.80859 11.6475C4.19531 11.6475 4.625 11.5615 4.96875 11.4756C2.90625 11.0459 1.35938 9.24121 1.35938 7.0498V7.00684C1.96094 7.35059 2.69141 7.52246 3.42188 7.56543C2.17578 6.74902 1.40234 5.37402 1.40234 3.82715C1.40234 2.96777 1.61719 2.19434 2.00391 1.5498C4.23828 4.25684 7.58984 6.06152 11.3281 6.27637C11.2422 5.93262 11.1992 5.58887 11.1992 5.24512C11.1992 2.75293 13.2188 0.733398 15.7109 0.733398C17 0.733398 18.1602 1.24902 19.0195 2.15137C20.0078 1.93652 20.9961 1.5498 21.8555 1.03418C21.5117 2.1084 20.8242 2.96777 19.8789 3.52637C20.7812 3.44043 21.6836 3.18262 22.457 2.83887C21.8555 3.74121 21.082 4.51465 20.2227 5.15918Z" fill="#00ACEE"/>
</svg>
